<?xml version="1.0" standalone="no"?>
<!DOCTYPE svg PUBLIC "-//W3C//DTD SVG 20010904//EN"
 "http://www.w3.org/TR/2001/REC-SVG-20010904/DTD/svg10.dtd">
<svg version="1.0" xmlns="http://www.w3.org/2000/svg"
 width="370.000000pt" height="370.000000pt" viewBox="0 0 370.000000 370.000000"
 preserveAspectRatio="xMidYMid meet">
<metadata>
Created by potrace 1.14, written by Peter Selinger 2001-2017
</metadata>
<g transform="translate(0.000000,370.000000) scale(0.100000,-0.100000)"
fill="#000000" stroke="none">
<path d="M1648 3447 c-10 -8 -13 -18 -9 -26 4 -7 6 -23 3 -37 -3 -16 2 -29 13
-38 12 -9 14 -15 7 -20 -8 -4 -8 -15 -2 -31 5 -14 7 -25 4 -25 -2 0 0 -9 6
-20 12 -23 4 -25 -37 -9 -39 16 -154 18 -160 3 -2 -7 -15 -11 -29 -9 -13 1
-29 -4 -35 -11 -5 -7 -19 -11 -29 -9 -12 2 -26 -5 -34 -16 -12 -18 -17 -18
-42 -7 -16 7 -32 17 -35 22 -4 5 -12 5 -19 1 -8 -5 -11 -4 -7 2 7 12 -20 26
-33 18 -4 -3 -11 2 -14 11 -3 8 -9 13 -14 11 -4 -3 -16 1 -27 9 -10 8 -15 14
-11 14 4 0 1 7 -8 15 -8 8 -22 15 -30 15 -9 0 -21 9 -28 20 -7 11 -21 20 -30
20 -10 0 -18 5 -18 10 0 6 -11 10 -25 10 -28 0 -47 -32 -50 -84 -1 -15 -7 -31
-12 -35 -5 -3 -9 -25 -8 -48 1 -25 -4 -44 -11 -47 -7 -3 -11 -25 -9 -65 2 -44
-1 -61 -12 -65 -12 -5 -12 -8 1 -22 19 -19 20 -38 3 -52 -15 -13 -16 -186 -1
-217 13 -26 12 -99 -1 -103 -5 -2 -17 -9 -25 -16 -8 -8 -23 -12 -33 -11 -10 2
-20 -2 -23 -9 -3 -7 -17 -12 -32 -10 -26 3 -59 -9 -55 -20 7 -17 97 -96 109
-96 8 0 14 -5 14 -10 0 -6 12 -16 28 -23 29 -13 36 -43 16 -64 -6 -7 -10 -25
-8 -42 2 -18 -2 -31 -10 -34 -8 -3 -12 -17 -11 -31 2 -17 -2 -26 -11 -26 -12
0 -12 -4 -4 -20 6 -12 7 -20 1 -20 -16 0 -5 -32 14 -43 28 -15 113 -16 119 -1
3 7 13 11 23 9 10 -2 21 -4 26 -4 4 -1 7 -10 7 -22 0 -11 14 -34 30 -52 17
-18 28 -38 25 -44 -2 -7 2 -13 10 -13 13 0 13 -3 3 -20 -8 -12 -19 -18 -30
-14 -10 3 -18 0 -18 -5 0 -6 -14 -20 -32 -31 -17 -10 -33 -25 -34 -32 -1 -7
-5 -21 -9 -30 -4 -11 -3 -18 4 -18 6 0 11 -6 11 -13 0 -8 10 -13 23 -13 12 1
21 -4 20 -10 -1 -8 6 -10 20 -6 22 5 22 5 -3 -23 -44 -49 -67 -70 -81 -73 -16
-4 -34 -20 -34 -30 0 -15 -31 -47 -45 -47 -8 0 -14 -5 -13 -12 2 -6 -13 -27
-33 -45 -36 -33 -56 -67 -59 -100 -1 -10 -7 -23 -13 -30 -14 -18 -13 -68 1
-98 14 -29 37 -55 49 -55 5 0 12 -5 16 -10 9 -13 91 -12 100 1 4 6 28 10 54 9
27 -1 46 3 45 9 -1 6 10 11 25 11 14 0 30 3 34 8 4 4 16 7 26 7 10 0 18 6 18
14 0 9 7 12 20 9 11 -3 20 0 20 6 0 6 6 11 13 11 9 0 11 -19 9 -68 -3 -66 -5
-69 -26 -65 -13 3 -43 -5 -66 -16 -24 -12 -52 -21 -62 -21 -10 0 -18 -4 -18
-10 0 -5 -7 -10 -15 -10 -18 0 -58 -39 -63 -60 -2 -8 -8 -18 -14 -21 -6 -4 -8
-11 -4 -17 3 -5 0 -12 -8 -15 -8 -3 -12 -19 -11 -44 1 -21 -3 -44 -9 -52 -15
-19 -16 -191 0 -191 6 0 10 -12 9 -27 -2 -35 13 -71 42 -101 12 -13 19 -30 17
-37 -4 -10 0 -12 15 -8 15 4 21 1 21 -11 0 -10 4 -15 9 -12 5 4 11 1 13 -4 2
-6 26 -11 53 -12 77 -1 91 -18 67 -78 -8 -22 -9 -229 -1 -227 4 1 7 -2 7 -6 1
-14 56 -52 69 -49 7 2 13 -4 13 -12 0 -8 8 -13 18 -11 9 1 25 -2 35 -7 22 -11
126 -16 130 -5 1 4 11 9 20 11 10 1 22 8 26 15 4 7 14 11 22 9 9 -2 13 4 11
15 -2 9 2 18 8 18 5 1 16 2 23 3 6 1 11 8 9 14 -1 7 5 20 13 28 8 9 13 19 10
24 -3 5 4 25 15 45 11 19 20 49 20 66 0 16 6 32 14 35 8 3 12 14 9 27 -4 17
-3 19 6 7 15 -21 266 -24 300 -3 13 8 21 11 18 6 -6 -10 55 -73 71 -73 5 0 15
-7 22 -15 7 -8 16 -12 21 -10 4 3 11 0 16 -7 4 -7 13 -13 18 -14 23 -3 55 -17
55 -25 0 -5 14 -9 30 -9 17 0 30 -4 30 -9 0 -5 46 -9 103 -9 l103 0 16 36 c9
20 16 41 16 46 0 5 5 12 11 15 7 5 6 16 -4 34 -15 30 -16 68 -2 78 5 4 23 3
38 -1 20 -6 31 -5 36 4 9 14 63 28 63 16 0 -3 14 -5 30 -2 17 2 30 9 30 14 0
5 8 8 18 6 26 -4 102 23 95 35 -4 6 4 8 21 5 19 -4 31 1 44 16 9 12 25 20 35
18 9 -2 17 3 17 10 0 7 10 20 21 28 12 8 28 22 37 30 9 8 19 15 24 15 11 0 87
82 91 97 1 7 14 22 28 35 17 15 26 33 27 54 0 18 4 35 9 38 4 3 9 31 11 61 1
30 6 57 11 60 11 7 7 111 -5 135 -6 11 -9 35 -7 53 3 23 0 34 -11 38 -9 3 -13
10 -10 15 3 5 -4 18 -14 29 -17 18 -21 19 -34 7 -11 -11 -18 -12 -30 -3 -12 9
-16 28 -15 76 1 56 -1 65 -16 65 -10 0 -21 5 -25 10 -11 17 -30 12 -47 -12 -9
-13 -13 -23 -10 -23 3 0 -5 -12 -19 -27 -14 -15 -23 -30 -20 -35 3 -4 -3 -8
-13 -8 -10 0 -25 -9 -33 -20 -8 -11 -21 -20 -30 -20 -8 0 -21 -9 -28 -20 -7
-12 -17 -18 -22 -15 -5 3 -11 1 -15 -5 -3 -5 -14 -10 -25 -10 -10 0 -20 -6
-23 -14 -3 -8 -16 -12 -33 -10 -15 1 -36 -3 -48 -9 -12 -7 -39 -12 -61 -12
-22 1 -43 -3 -46 -8 -3 -5 -59 -9 -123 -9 -64 -1 -119 -5 -122 -10 -3 -4 -23
-8 -45 -8 -39 0 -39 0 -36 36 3 23 0 37 -9 41 -8 3 -12 16 -10 34 2 16 -2 34
-9 39 -7 6 -12 19 -10 28 2 9 4 20 4 25 1 11 29 8 33 -4 5 -16 258 -15 268 1
4 7 15 10 24 7 8 -3 21 0 28 7 7 7 16 12 20 12 3 -1 17 8 30 20 13 11 29 19
36 16 7 -2 12 5 12 17 0 12 5 21 10 21 14 0 13 46 -1 73 -7 11 -20 30 -31 41
-10 11 -16 26 -14 33 4 8 -3 13 -19 13 -15 0 -26 7 -30 21 -4 11 -9 18 -12 15
-3 -3 -15 0 -27 6 -11 7 -25 11 -30 10 -5 -2 -13 3 -17 10 -5 7 -17 13 -27 13
-10 0 -26 6 -35 14 -10 7 -17 10 -17 6 0 -5 -8 -1 -17 7 -10 9 -26 14 -35 13
-10 -2 -18 1 -18 6 0 5 -13 9 -30 9 -16 0 -30 5 -30 10 0 6 -6 10 -12 9 -29
-3 -49 2 -43 11 3 6 21 10 38 10 30 1 31 1 13 15 -11 8 -17 17 -14 21 9 9 -78
94 -96 94 -9 0 -16 4 -16 8 0 15 24 32 45 32 19 0 54 26 54 40 0 3 4 17 10 31
8 22 15 26 41 24 20 -2 34 3 37 11 3 9 15 12 30 9 14 -2 35 1 47 7 12 7 35 12
51 13 17 0 40 6 51 12 12 7 24 9 28 6 3 -3 6 1 6 10 0 10 4 17 9 17 5 0 11 9
14 20 3 11 1 20 -3 20 -4 0 -6 9 -3 20 3 12 0 20 -7 20 -7 0 -10 8 -7 20 3 11
2 20 -3 20 -13 0 -60 52 -60 66 0 8 10 14 23 14 12 0 29 6 37 13 27 21 60 69
54 78 -3 5 1 9 9 9 22 0 16 23 -15 55 -20 21 -28 25 -28 14 0 -14 -7 -16 -51
-10 -10 1 -18 40 -10 46 4 2 6 17 4 32 -3 15 2 41 11 57 9 17 12 35 7 40 -5 6
-5 20 -1 31 4 11 4 30 -1 43 -5 13 -5 22 1 22 5 0 7 6 4 14 -3 8 0 17 6 21 9
6 9 10 -1 16 -10 7 -11 11 -3 17 8 5 12 52 12 145 0 76 2 141 6 144 3 3 -3 20
-14 38 -11 18 -17 35 -14 38 4 3 -1 13 -9 22 -21 20 -122 21 -130 1 -3 -8 -14
-12 -24 -10 -11 3 -27 -3 -37 -15 -11 -12 -28 -21 -39 -21 -11 0 -27 -8 -36
-17 -9 -10 -23 -19 -31 -21 -8 -2 -19 -10 -23 -18 -4 -8 -14 -14 -21 -14 -7 0
-39 -25 -70 -56 -31 -31 -55 -51 -54 -46 2 5 -67 80 -153 166 -86 85 -154 158
-151 160 5 6 -17 36 -27 36 -3 0 -14 -6 -23 -13z m1401 -2118 c-16 -10 -23 -4
-14 10 3 6 11 8 17 5 6 -4 5 -9 -3 -15z"/>
</g>
</svg>
